<?xml version="1.0" encoding="utf-8"?>
<!-- Generator: Adobe Illustrator 24.0.0, SVG Export Plug-In . SVG Version: 6.00 Build 0)  -->
<svg version="1.1" id="Capa_1" xmlns="http://www.w3.org/2000/svg" xmlns:xlink="http://www.w3.org/1999/xlink" x="0px" y="0px"
	 viewBox="0 0 512 512" style="enable-background:new 0 0 512 512;" xml:space="preserve">
<style type="text/css">
	.st0{fill:#FFA600;}
	.st1{fill:#FFDB2D;}
	.st2{fill:#FFCA00;}
</style>
<path class="st0" d="M498.7,300L446,253.4l50.9-48.6c1.9-1.8,2.6-4.4,2-6.9c-0.6-2.5-2.5-4.5-5-5.2l-67.8-19.6l25-65.6
	c0.9-2.4,0.5-5.1-1.2-7.1c-1.6-2-4.2-3-6.8-2.6l-69.7,11.2l-5.7-69.9c-0.2-2.6-1.8-4.8-4.1-5.9c-2.3-1.1-5.1-0.9-7.2,0.6l-58.1,39.8
	l-35.3-60.8c-1.3-2.2-3.7-3.6-6.3-3.6s-5,1.4-6.3,3.6l-40.5,69.8L140,42.2c-2.2-1.3-5-1.3-7.3,0c-2.2,1.3-3.6,3.7-3.6,6.2l-0.2,70.2
	l-70.3-5.8c-2.6-0.2-5.1,1-6.6,3.1c-1.5,2.1-1.7,4.9-0.6,7.2l30.1,63.5l-66,24.8c-2.4,0.9-4.2,3-4.6,5.6c-0.4,2.5,0.6,5.1,2.6,6.8
	L68,268.1l-49,50.5c-1.8,1.9-2.5,4.5-1.8,7c0.7,2.5,2.7,4.4,5.2,5L91,347.5L68.6,414c-0.8,2.4-0.3,5.1,1.4,7.1
	c1.7,1.9,4.3,2.8,6.9,2.3l69.2-13.9l8.4,69.7c0.3,2.6,2,4.8,4.4,5.8c2.4,1,5.1,0.7,7.2-0.9l56.5-42.1l37.6,57.4
	c1.3,2.1,3.7,3.4,6.1,3.4c0.1,0,0.2,0,0.3,0c2.6-0.1,4.9-1.6,6.1-3.8l32.9-60.2l59.6,37.6c2.2,1.4,5,1.5,7.3,0.3
	c2.3-1.2,3.8-3.5,3.9-6.1l2.9-70.1l70.1,8.5c2.6,0.3,5.1-0.8,6.7-2.8c1.6-2.1,1.9-4.8,0.9-7.2l-27.6-64.6l67-22.2
	c2.5-0.8,4.3-2.9,4.8-5.4C501.6,304.3,500.7,301.7,498.7,300z"/>
<ellipse class="st1" cx="256" cy="256" rx="149.5" ry="149.4"/>
<path class="st2" d="M186.8,106.6c-3.7,0-7.5,0.1-11.1,0.4C253.1,112.7,314,177.3,314,256c0,78.7-61,143.3-138.3,148.9
	c3.7,0.3,7.4,0.4,11.1,0.4c82.5,0,149.5-66.9,149.5-149.4C336.3,173.5,269.4,106.6,186.8,106.6z"/>
</svg>
